<?xml version="1.0" standalone="no"?>
<!DOCTYPE svg PUBLIC "-//W3C//DTD SVG 20010904//EN"
 "http://www.w3.org/TR/2001/REC-SVG-20010904/DTD/svg10.dtd">
<svg version="1.0" xmlns="http://www.w3.org/2000/svg"
 width="1024.000000pt" height="1024.000000pt" viewBox="0 0 1024.000000 1024.000000"
 preserveAspectRatio="xMidYMid meet">

<g transform="translate(0.000000,1024.000000) scale(0.100000,-0.100000)"
fill="#000000" stroke="none">
<path d="M4955 8034 c-314 -44 -481 -82 -684 -154 -172 -61 -304 -116 -444
-186 -686 -345 -1241 -993 -1488 -1738 -109 -329 -141 -535 -140 -911 0 -283
10 -383 62 -632 116 -558 399 -1067 826 -1483 213 -209 377 -330 683 -505 83
-47 304 -148 400 -183 214 -77 467 -141 640 -162 52 -6 105 -12 117 -14 19 -3
26 7 52 79 82 228 81 484 -3 683 -65 156 -179 301 -316 402 -77 57 -237 139
-330 168 -85 27 -259 62 -307 62 -36 0 -32 -3 62 -48 347 -167 628 -431 724
-680 35 -91 56 -222 38 -234 -27 -17 -160 -33 -262 -31 -136 1 -236 26 -360
88 -175 87 -285 190 -477 447 -171 229 -220 278 -453 453 -20 14 -19 15 15 45
48 41 214 125 317 161 132 46 276 78 407 90 288 28 601 -54 807 -210 92 -70
206 -192 264 -284 28 -43 55 -85 61 -94 9 -13 16 -6 44 43 152 271 413 458
731 525 132 28 350 30 486 6 117 -21 309 -84 428 -141 92 -43 215 -120 215
-134 0 -4 -33 -28 -74 -54 -101 -66 -264 -235 -398 -413 -260 -346 -426 -468
-705 -521 -101 -19 -216 -15 -330 11 -72 16 -73 17 -73 49 0 98 75 283 164
403 119 162 350 343 600 472 55 28 90 51 79 51 -48 0 -244 -40 -318 -65 -484
-161 -763 -562 -705 -1015 10 -84 70 -294 88 -312 8 -8 207 15 327 38 339 63
672 192 996 384 478 284 905 747 1149 1245 120 244 187 446 245 731 117 576
59 1185 -163 1709 -107 252 -208 426 -377 650 -409 542 -1023 953 -1675 1121
-263 68 -397 86 -670 89 -135 2 -258 1 -275 -1z m348 -299 c141 -30 293 -139
366 -263 61 -104 86 -197 85 -322 -2 -213 -81 -377 -239 -495 -283 -211 -716
-107 -870 208 -47 98 -65 174 -65 282 0 106 18 182 65 280 113 236 391 367
658 310z m-879 -156 c53 -41 19 -129 -49 -129 -37 0 -62 24 -71 67 -5 26 -1
37 19 57 31 31 65 33 101 5z m1601 -4 c48 -47 17 -125 -51 -125 -66 0 -99 89
-48 129 35 28 69 26 99 -4z m-2161 -225 c173 -44 336 -162 398 -288 31 -62 33
-73 33 -173 0 -99 -2 -108 -28 -148 -21 -31 -27 -50 -22 -68 6 -24 101 -243
252 -583 121 -271 128 -288 117 -318 -19 -54 -75 -41 -127 28 -41 55 -132 127
-212 168 -127 64 -314 104 -409 86 -48 -9 -50 -11 -82 -73 -39 -77 -70 -110
-136 -146 -70 -38 -140 -55 -235 -55 -125 0 -313 43 -313 72 0 37 116 203 191
273 153 141 375 173 489 70 22 -20 39 -23 150 -28 146 -6 255 -34 381 -97 l80
-41 -15 28 c-63 119 -250 270 -425 344 -87 36 -110 38 -183 10 -188 -70 -377
34 -496 272 -50 99 -93 222 -85 242 8 24 47 28 167 21 140 -8 221 -27 306 -72
124 -65 196 -156 208 -264 l7 -62 45 -17 c85 -33 199 -92 266 -136 37 -25 68
-45 70 -45 1 0 -31 70 -72 155 -41 85 -74 159 -74 165 0 13 -28 26 -72 34 -49
9 -147 75 -192 131 -77 93 -128 243 -142 416 -10 126 9 138 160 99z m2761 0
c15 -17 17 -31 11 -103 -16 -203 -75 -346 -183 -447 -54 -51 -75 -63 -137 -82
-68 -20 -74 -24 -86 -57 -7 -20 -41 -98 -75 -173 -35 -76 -61 -138 -59 -138 2
0 25 15 51 34 53 38 190 111 269 143 l51 21 7 60 c12 109 90 204 223 271 87
43 167 61 315 68 182 9 184 7 107 -173 -85 -198 -158 -290 -275 -349 -52 -26
-70 -29 -149 -30 -75 0 -97 4 -132 23 -30 15 -51 20 -70 16 -47 -11 -125 -46
-198 -88 -161 -93 -251 -175 -330 -299 -18 -28 -18 -28 71 16 49 25 111 52
137 61 75 25 212 46 302 46 71 0 85 3 101 21 50 56 161 78 269 54 86 -19 155
-57 234 -131 60 -55 181 -222 181 -248 0 -22 -22 -34 -105 -58 -65 -18 -105
-23 -210 -23 -113 0 -138 3 -188 24 -82 32 -170 120 -190 187 l-14 49 -108 3
c-134 3 -229 -18 -365 -84 -81 -40 -108 -60 -184 -136 -91 -92 -118 -106 -151
-78 -28 24 -34 9 217 590 61 140 120 279 131 308 l20 53 -26 27 c-38 40 -50
78 -49 162 1 86 16 136 67 215 83 131 212 213 395 250 90 18 104 18 125 -5z
m-3551 -906 c59 -59 20 -154 -64 -154 -56 0 -90 34 -90 90 0 84 95 123 154 64z
m4325 0 c24 -20 31 -34 31 -61 0 -46 -45 -93 -90 -93 -22 0 -41 9 -61 29 -20
20 -29 39 -29 61 0 22 9 41 29 61 37 37 79 38 120 3z m-2107 -119 c52 -36 89
-105 96 -179 3 -28 11 -60 18 -71 17 -26 3 -98 -24 -128 -11 -12 -23 -33 -27
-47 -4 -14 -16 -41 -27 -61 -16 -29 -20 -50 -16 -98 8 -108 52 -146 194 -167
155 -23 209 -66 233 -186 6 -29 20 -143 31 -253 33 -310 53 -367 175 -490 84
-85 221 -195 244 -195 9 0 60 30 114 66 l98 66 42 -38 c61 -54 79 -90 73 -144
-2 -25 -8 -53 -11 -62 -13 -33 15 -19 64 32 50 52 70 60 90 36 23 -28 -35
-111 -107 -153 -39 -23 -60 -28 -139 -31 l-92 -4 14 -29 c33 -64 10 -141 -57
-192 -125 -95 -342 -138 -606 -118 -133 10 -339 47 -376 68 -23 13 -9 26 92
88 208 126 318 163 495 166 53 1 99 5 102 9 11 18 -122 44 -225 44 -164 -1
-211 -17 -469 -162 -169 -95 -266 -136 -408 -173 -330 -85 -681 -51 -826 80
-67 60 -82 115 -52 188 8 19 15 36 15 37 0 0 -29 -1 -65 -2 -100 -6 -167 18
-231 83 -54 54 -65 80 -42 103 20 20 45 13 75 -21 29 -34 72 -67 85 -67 4 0 0
16 -8 35 -7 19 -14 50 -14 68 0 43 44 105 92 131 l36 19 95 -61 c53 -34 100
-62 105 -62 19 0 189 140 259 213 113 119 132 172 158 427 26 269 35 322 63
373 36 68 86 95 197 108 143 16 195 56 209 160 6 42 3 59 -19 104 -14 30 -25
58 -25 64 0 5 -12 24 -27 41 -29 35 -45 131 -24 144 6 4 11 23 11 42 0 92 46
175 118 214 29 16 52 20 109 17 61 -2 78 -7 115 -32z m-2482 -90 c7 -8 10 -26
8 -40 -5 -22 -2 -25 23 -25 26 0 59 -22 59 -40 0 -17 -32 -40 -55 -40 -20 0
-24 -6 -27 -37 -3 -35 -6 -38 -35 -41 -28 -3 -33 1 -39 22 -3 14 -4 32 -1 40
4 11 -3 16 -30 18 -67 6 -71 69 -4 76 28 3 31 7 31 36 0 18 3 36 7 39 12 12
50 7 63 -8z m4810 -24 c0 -38 1 -39 39 -46 67 -11 67 -65 1 -65 -38 0 -39 0
-42 -42 -3 -40 -5 -43 -35 -46 -33 -3 -33 -3 -33 41 l0 45 -37 -2 c-37 -1 -38
0 -38 34 0 33 2 35 38 38 35 3 37 5 37 36 0 40 5 46 42 46 26 0 28 -3 28 -39z
m-4915 -366 c30 -29 32 -54 5 -83 -27 -28 -80 -29 -105 -2 -24 27 -22 70 5 92
31 25 66 23 95 -7z m5033 9 c27 -18 30 -69 5 -96 -20 -22 -70 -23 -95 -1 -39
35 -8 113 45 113 12 0 33 -7 45 -16z m-3684 -184 c83 -32 130 -71 172 -146 30
-54 49 -74 98 -106 69 -44 81 -60 67 -86 -23 -42 -37 -46 -96 -21 l-55 23 -28
-27 c-15 -14 -54 -38 -87 -54 -53 -24 -71 -28 -155 -27 -108 0 -180 23 -253
78 -52 40 -154 160 -187 221 -24 45 -24 47 -6 60 36 27 172 78 256 96 101 22
194 18 274 -11z m2546 6 c94 -25 171 -57 201 -85 l30 -26 -38 -64 c-47 -79
-164 -201 -221 -230 -149 -76 -354 -60 -447 34 l-26 25 -46 -20 c-59 -26 -69
-25 -89 5 -15 23 -15 27 1 51 9 14 39 40 66 57 40 24 55 43 79 93 73 153 272
218 490 160z m-3525 -105 c32 -64 39 -114 25 -176 -33 -141 -21 -169 40 -94
42 53 118 89 186 89 70 0 82 -15 56 -73 -38 -85 -130 -147 -221 -147 -64 0
-81 -28 -81 -134 0 -92 8 -95 73 -26 34 36 60 53 98 65 84 24 149 16 149 -21
0 -27 -38 -91 -74 -122 -39 -34 -119 -62 -177 -62 -54 0 -69 -26 -69 -118 0
-92 15 -102 68 -47 20 21 55 46 77 56 39 18 127 25 159 13 41 -16 -9 -111 -85
-161 -32 -21 -57 -28 -120 -33 -55 -4 -83 -10 -89 -20 -5 -8 -10 -92 -10 -185
0 -120 -4 -175 -12 -183 -16 -16 -63 -15 -77 2 -7 8 -14 86 -19 197 l-7 184
-73 2 c-61 2 -83 7 -125 31 -82 46 -131 120 -104 156 11 14 27 19 68 18 73 0
132 -26 173 -74 53 -61 71 -51 73 42 2 104 -10 120 -85 120 -102 0 -203 66
-233 153 -13 36 -12 40 6 53 50 37 182 -2 243 -72 60 -67 72 -61 72 39 0 105
-14 122 -108 130 -77 6 -143 43 -184 102 -53 78 -45 115 25 115 68 0 117 -21
178 -77 68 -64 89 -68 89 -17 0 19 -5 45 -11 57 -30 54 -7 199 38 249 26 29
41 21 68 -31z m4324 -68 c78 -86 150 -225 158 -304 5 -55 5 -56 -22 -63 -31
-8 -105 -55 -147 -94 l-28 -26 0 58 c0 75 -29 205 -41 184 -15 -27 -39 -157
-53 -286 -8 -68 -17 -126 -20 -130 -13 -12 -96 83 -122 142 -24 53 -28 73 -27
151 0 104 20 167 84 265 40 62 135 170 150 170 4 0 35 -30 68 -67z m-479 -403
c25 -6 55 -12 66 -15 18 -4 23 -15 28 -59 14 -112 90 -222 189 -272 l47 -24 0
-77 0 -76 -62 6 c-169 14 -306 127 -359 297 -19 63 -41 209 -33 222 7 11 69
10 124 -2z m940 -17 c0 -16 -5 -56 -10 -90 -42 -258 -173 -393 -407 -417 -35
-3 -53 -1 -53 6 0 6 22 40 49 77 52 70 93 142 86 149 -9 9 -77 -42 -126 -96
l-52 -57 5 90 c4 71 10 100 30 140 67 130 239 219 431 224 45 1 47 0 47 -26z
m-556 -779 c3 -9 6 -24 6 -34 0 -12 8 -20 23 -22 33 -5 36 -45 3 -57 -14 -6
-26 -20 -28 -32 -7 -48 -68 -52 -68 -4 0 20 -5 25 -24 25 -54 0 -58 58 -5 70
18 4 25 13 27 38 3 28 7 32 32 32 16 0 30 -7 34 -16z m-3846 -198 l3 -56 51 0
c55 0 88 -19 88 -51 0 -33 -28 -49 -86 -49 l-54 0 0 -54 c0 -45 -4 -58 -21
-70 -43 -29 -79 5 -79 75 l0 48 -62 3 c-58 3 -63 5 -72 30 -15 44 14 68 81 68
l53 0 0 48 c0 69 33 103 75 77 15 -9 21 -25 23 -69z m3500 68 c18 -12 22 -25
22 -70 l0 -54 48 0 c37 0 54 -5 68 -21 17 -19 17 -23 3 -47 -12 -23 -22 -27
-67 -30 l-52 -3 0 -45 c0 -60 -14 -84 -48 -84 -40 0 -52 17 -52 77 l0 53 -51
0 c-65 0 -89 13 -89 48 0 35 17 52 51 52 14 0 41 3 58 6 30 6 31 8 31 61 0 46
3 55 23 63 30 12 30 12 55 -6z m-4088 -117 c3 -16 15 -33 30 -40 37 -19 38
-45 1 -58 -23 -8 -31 -17 -31 -35 0 -46 -61 -42 -68 4 -2 12 -13 23 -28 26
-14 4 -27 13 -31 21 -7 20 14 45 38 45 12 0 19 7 19 19 0 37 12 52 39 49 19
-2 27 -10 31 -31z m4688 -4 c2 -24 9 -33 25 -35 32 -4 32 -62 0 -66 -16 -2
-23 -10 -23 -26 0 -13 -6 -29 -14 -35 -22 -18 -46 -2 -46 30 0 26 -4 29 -30
29 -51 0 -53 61 -1 68 11 2 21 10 21 18 0 58 63 74 68 17z m-4460 -225 c7 -7
12 -22 12 -35 0 -13 6 -23 14 -23 8 0 24 -8 37 -19 20 -16 21 -21 10 -35 -7
-9 -24 -16 -37 -16 -20 0 -24 -5 -24 -29 0 -20 -6 -31 -17 -33 -35 -8 -53 3
-53 33 0 26 -4 29 -30 29 -55 0 -51 62 4 68 19 3 26 9 26 26 0 24 17 46 35 46
6 0 16 -5 23 -12z m4200 0 c5 -7 12 -24 14 -38 2 -16 11 -26 28 -30 18 -4 25
-12 25 -30 0 -21 -5 -26 -33 -28 -28 -3 -32 -7 -30 -29 3 -29 -21 -50 -46 -40
-10 4 -16 18 -16 37 0 27 -3 30 -30 30 -55 0 -51 62 4 68 21 3 26 9 26 31 0
15 3 31 7 34 11 11 40 8 51 -5z"/>
<path d="M5095 7619 c-83 -12 -199 -71 -261 -134 -91 -91 -154 -264 -138 -377
25 -176 123 -319 269 -393 66 -34 84 -38 167 -42 159 -9 274 34 372 137 64 67
91 117 117 217 43 169 8 317 -105 450 -97 112 -257 166 -421 142z m136 -84
c17 -29 27 -35 54 -35 44 0 85 -34 85 -70 0 -69 -136 -67 -184 2 -10 14 -16
44 -16 80 0 52 2 58 20 58 13 0 28 -13 41 -35z m-120 -45 c40 -22 9 -92 -46
-106 -33 -8 -74 3 -82 21 -22 59 66 118 128 85z m98 -156 c39 -50 14 -124 -41
-124 -57 0 -79 80 -33 125 31 32 48 31 74 -1z m-196 -19 c48 -47 17 -147 -58
-191 -35 -20 -54 -24 -97 -22 l-53 3 0 57 c0 48 5 63 31 95 52 65 141 94 177
58z m404 4 c64 -24 113 -93 113 -158 0 -56 -22 -75 -78 -67 -114 15 -192 147
-127 211 26 27 49 31 92 14z m-146 -191 c80 -54 120 -110 127 -176 6 -64 -9
-92 -49 -92 -74 0 -139 74 -147 166 -8 91 -52 84 -72 -11 -6 -30 -21 -69 -33
-87 -27 -40 -82 -78 -112 -78 -48 0 -70 85 -41 153 17 40 87 108 146 141 66
38 106 34 181 -16z m-72 -242 c12 -13 24 -39 28 -59 4 -29 1 -40 -20 -61 -32
-32 -42 -32 -72 -1 -31 30 -33 82 -4 119 25 32 39 33 68 2z"/>
<path d="M5259 4973 c-13 -16 -12 -17 4 -4 9 7 17 15 17 17 0 8 -8 3 -21 -13z"/>
<path d="M5587 4867 c-3 -8 -9 -57 -12 -109 -11 -150 30 -286 100 -327 19 -12
61 -21 113 -26 46 -3 106 -12 133 -19 27 -7 49 -10 49 -7 0 3 -47 39 -104 79
-104 71 -177 146 -211 211 -9 18 -27 74 -40 123 -12 49 -25 83 -28 75z"/>
<path d="M4740 4832 c0 -46 -29 -133 -62 -184 -39 -62 -120 -135 -224 -204
-101 -67 -120 -87 -57 -63 15 5 77 17 138 26 60 8 123 22 138 31 37 22 83 120
92 195 9 68 -3 227 -16 227 -5 0 -9 -13 -9 -28z"/>
<path d="M3906 4465 c-9 -13 -16 -35 -16 -48 0 -22 37 -67 55 -67 20 0 85 36
85 47 0 20 -70 93 -90 93 -10 0 -25 -11 -34 -25z"/>
<path d="M6346 4450 c-20 -22 -36 -47 -36 -56 0 -15 55 -44 85 -44 24 0 55 38
55 68 0 30 -32 72 -54 72 -8 0 -30 -18 -50 -40z"/>
<path d="M4990 4273 c-55 -22 -77 -26 -145 -23 -44 2 -136 4 -205 4 -113 0
-130 -2 -175 -24 l-50 -25 55 -2 c30 -2 139 -10 242 -18 140 -12 202 -13 251
-5 80 13 186 44 212 64 19 14 18 15 -25 35 -58 26 -80 25 -160 -6z"/>
</g>
</svg>
